# xmcd
#
# Track frame offsets:
#	150
#	9800
#	22247
#	34545
#	51072
#	62705
#	75017
#	87622
#	97042
#	110905
#	126480
#	137407
#	146765
#	161377
#
# Disc length: 2337 seconds
#
# Revision: 3
# Processed by: cddbd v1.5.2PL0 Copyright (c) Steve Scherf et al.
# Submitted via: EasyCDDAExtractor 11.1.0.1
#
DISCID=b5091f0e
DTITLE=Various Artist - Down And Dirty - The Immediate Blues Story, Vol. 3
DYEAR=1991
DGENRE=Blues
TTITLE0=Eric Clapton - Tribute To Elmore
TTITLE1=Jo Ann Kelly - Keep Your Hands Of My Pocket
TTITLE2=Stone's Masonry - Flapjacks
TTITLE3=Dave Kelly - Married Woman Blues
TTITLE4=Jeremy Spencer - Who's knocking
TTITLE5=Simon and Steve - Down And Dirty
TTITLE6=Eric Clapton and Jimmy Page - Freight Loader
TTITLE7=All Stars with Jimmy Page  - L.A. Breakdown
TTITLE8=Jeremy Spencer - Look Down At My Woman
TTITLE9=All Stars with Jimmy Page - Down In The Boots
TTITLE10=Eric Clapton and Jimmy Page - Miles Road
TTITLE11=Dave Kelly - All Night Long
TTITLE12=Jo Ann Kelly - Back Water Blues
TTITLE13=Eric Clapton and Jimmy Page - Draggin' My Tail
EXTD=YEAR: 1991 ID3G: 0
EXTT0=
EXTT1=
EXTT2=
EXTT3=
EXTT4=
EXTT5=
EXTT6=
EXTT7=
EXTT8=
EXTT9=
EXTT10=
EXTT11=
EXTT12=
EXTT13=
PLAYORDER=
